<svg width="122" height="21" viewBox="0 0 122 21" fill="none" xmlns="http://www.w3.org/2000/svg">
<path d="M27.4271 4.50195C27.5459 6.75754 26.0836 8.6909 24.0547 9.27091C24.0273 9.28933 24.009 9.29853 23.9908 9.30774C22.0075 9.84172 20.5452 11.6646 20.5452 13.8373C20.5452 13.8557 20.527 13.8834 20.5087 13.911C20.2254 16.2218 18.2604 18.0079 15.8934 18.0079H15.802C13.4349 18.0079 11.47 16.2218 11.1866 13.911C11.1592 13.8742 11.1501 13.8557 11.1501 13.8373C11.1501 11.6738 9.68781 9.84172 7.70459 9.30774C7.68631 9.29853 7.66803 9.28933 7.64061 9.27091C5.6117 8.6909 4.14941 6.75754 4.26823 4.50195C4.38704 2.16351 6.25145 0.248556 8.57282 0.0828389C11.2963 -0.110497 13.5629 2.06223 13.5629 4.75973C13.5629 4.78735 13.5629 4.82418 13.5629 4.8518C13.6908 5.85531 14.1295 6.78516 14.8058 7.50327C15.3724 8.10169 16.3138 8.10169 16.8804 7.50327C17.5567 6.78516 18.0045 5.85531 18.1233 4.8518C18.1233 4.82418 18.1233 4.78735 18.1233 4.75973C18.1233 2.06223 20.3899 -0.110497 23.1134 0.0828389C25.4256 0.248556 27.2992 2.16351 27.4271 4.50195Z" fill="#00B8C2"/>
<path d="M26.9243 20.9448C29.4935 20.9448 31.5762 18.8467 31.5762 16.2587C31.5762 13.6706 29.4935 11.5726 26.9243 11.5726C24.3552 11.5726 22.2725 13.6706 22.2725 16.2587C22.2725 18.8467 24.3552 20.9448 26.9243 20.9448Z" fill="#FDB515"/>
<path d="M4.65188 20.9908C7.22105 20.9908 9.30377 18.8928 9.30377 16.3047C9.30377 13.7166 7.22105 11.6186 4.65188 11.6186C2.08272 11.6186 0 13.7166 0 16.3047C0 18.8928 2.08272 20.9908 4.65188 20.9908Z" fill="#FDB515"/>
<path d="M99.3712 3.92196C100.446 3.92196 101.318 3.044 101.318 1.96098C101.318 0.877961 100.446 0 99.3712 0C98.2961 0 97.4246 0.877961 97.4246 1.96098C97.4246 3.044 98.2961 3.92196 99.3712 3.92196Z" fill="#063A4F"/>
<path d="M47.4236 16.7742H44.1152C43.9232 16.7742 43.7679 16.6177 43.7679 16.4244C43.7679 16.4152 43.7679 16.406 43.7679 16.3876C43.7679 14.2517 43.7679 12.125 43.7587 9.98906C43.7496 9.07761 43.2835 8.41475 42.5249 8.203C41.4008 7.88998 40.432 8.52523 40.2767 9.68524C40.2401 9.96144 40.2218 10.2376 40.2218 10.5138C40.2127 12.4564 40.2218 14.399 40.2218 16.3415V16.406C40.2218 16.5993 40.0665 16.7558 39.8745 16.7558H36.621C36.4291 16.7558 36.2737 16.5993 36.2737 16.406V5.16486C36.2737 4.97152 36.4291 4.81501 36.621 4.81501H39.4633C39.6552 4.81501 39.8106 4.97152 39.8106 5.16486C39.8106 5.45947 40.1396 5.61598 40.3772 5.44105C41.2454 4.75977 42.2416 4.5204 43.3292 4.52961C44.5538 4.52961 45.6231 4.87025 46.4457 5.80011C46.5828 5.95662 46.8204 5.94741 46.9575 5.80011C47.6064 5.12803 48.4106 4.76898 49.3337 4.63088C51.0153 4.3731 52.5964 4.53882 53.9033 5.78169C54.7258 6.56424 55.1919 7.55854 55.2651 8.67253C55.3564 10.0259 55.3382 11.3884 55.3473 12.7418C55.3564 13.9571 55.3473 15.1815 55.3473 16.4152C55.3473 16.6085 55.1919 16.765 55 16.765H51.6916C51.4997 16.765 51.3443 16.6085 51.3443 16.4152C51.3443 16.406 51.3443 16.3968 51.3443 16.3876C51.3443 14.2425 51.3717 12.0973 51.326 9.96144C51.2712 8.41475 50.0831 7.90839 48.9133 8.24903C48.2004 8.46078 47.78 9.17889 47.7709 10.1548C47.7617 12.2354 47.7709 14.3069 47.7709 16.3876C47.7709 16.406 47.7709 16.4152 47.7709 16.4336C47.7709 16.6177 47.6155 16.7742 47.4236 16.7742Z" fill="#063A4F"/>
<path d="M68.2428 6.5274C66.8902 4.99912 65.1263 4.4007 63.134 4.4007C62.9055 4.4007 62.677 4.39149 62.4394 4.4007C62.2749 4.4099 62.1104 4.43752 61.955 4.46514C60.1729 4.75975 58.6649 5.5331 57.6321 7.06137C56.6177 8.56203 56.3435 10.2468 56.6542 12.0237C56.9558 13.7269 57.7966 15.1078 59.2498 16.0745C60.6481 17.0044 62.2018 17.299 63.856 17.1609C65.1995 17.0412 66.4333 16.5993 67.5025 15.7431C68.8917 14.6291 69.5954 13.1284 69.7508 11.3792C69.897 9.56554 69.4584 7.90837 68.2428 6.5274ZM63.1523 13.6716C61.5346 13.6716 60.4288 12.4932 60.4288 10.7716C60.4288 9.06839 61.5255 7.90837 63.1523 7.90837C64.779 7.90837 65.8849 9.07759 65.8849 10.7716C65.8849 12.484 64.7699 13.6624 63.1523 13.6716Z" fill="#063A4F"/>
<path d="M82.6644 16.7742H79.2098C79.0635 16.7742 78.9539 16.6545 78.9539 16.5164V16.3875C78.9539 14.4081 78.963 12.4287 78.9447 10.4586C78.9447 10.1179 78.9082 9.76807 78.8259 9.44584C78.5792 8.49757 77.8206 8.03725 76.6965 8.1109C75.8191 8.16614 75.1428 8.79218 75.024 9.69442C74.9874 9.97061 74.9692 10.2468 74.9692 10.523C74.96 12.4656 74.9692 14.4081 74.9692 16.3507V16.5072C74.9692 16.6545 74.8503 16.765 74.7133 16.765H71.2769C71.1307 16.765 71.021 16.6453 71.021 16.5072V5.08197C71.021 4.93466 71.1398 4.82419 71.2769 4.82419H74.5122C74.6584 4.82419 74.7681 4.94387 74.7681 5.08197V5.24768C74.7681 5.46864 75.0331 5.58832 75.1976 5.44102C75.2982 5.34895 75.4078 5.2661 75.5175 5.19244C78.241 3.35115 82.1435 4.97149 82.7832 8.21217C82.8746 8.69091 82.9294 9.19727 82.9294 9.68521C82.9477 11.9592 82.9386 14.2332 82.9386 16.5072C82.9294 16.6637 82.8106 16.7742 82.6644 16.7742Z" fill="#063A4F"/>
<path d="M87.874 16.7742H84.4194C84.2823 16.7742 84.1726 16.6638 84.1726 16.5257V5.06359C84.1726 4.9255 84.2823 4.81502 84.4194 4.81502H87.6729C87.81 4.81502 87.9197 4.9255 87.9197 5.06359V5.26614C87.9197 5.47789 88.1756 5.59757 88.331 5.45947C88.4406 5.36741 88.5503 5.27534 88.66 5.20169C91.3835 3.36039 95.286 4.98074 95.9257 8.22142C96.0171 8.70016 96.0719 9.20651 96.0719 9.69446C96.0902 11.9685 96.0811 14.2425 96.0811 16.5165C96.0811 16.6546 95.9623 16.765 95.8343 16.765H92.3614C92.2243 16.765 92.1146 16.6546 92.1146 16.5165C92.1146 16.4796 92.1146 16.4336 92.1146 16.3968C92.1146 14.4174 92.1238 12.438 92.1055 10.4678C92.1055 10.1272 92.0689 9.77732 91.9867 9.45509C91.7399 8.50682 90.9814 8.0465 89.8572 8.12015C88.9799 8.17539 88.3036 8.80143 88.1848 9.70366C88.1482 9.97986 88.1299 10.2561 88.1299 10.5322C88.1208 12.4748 88.1299 14.4174 88.1299 16.36V16.5349C88.1208 16.6546 88.0111 16.7742 87.874 16.7742Z" fill="#063A4F"/>
<path d="M122 4.79657C121.954 4.92546 121.927 5.02673 121.89 5.1188C119.779 10.4125 117.659 15.6971 115.548 21H111.508C111.992 19.7203 112.477 18.4498 112.97 17.1793C113.062 16.9583 113.053 16.7742 112.961 16.5625C111.746 13.7729 110.53 10.9833 109.315 8.19377H108.602C108.446 8.19377 108.318 8.32266 108.318 8.47917V16.4704C108.318 16.6269 108.19 16.7558 108.035 16.7558H104.599C104.443 16.7558 104.315 16.6269 104.315 16.4704V8.48837C104.315 8.33186 104.187 8.20297 104.032 8.20297H102.789C102.634 8.20297 102.506 8.07408 102.506 7.91757V5.08197C102.506 4.92546 102.634 4.79657 102.789 4.79657H104.297C104.297 4.82419 104.297 4.8334 104.306 4.79657V4.76895C104.306 4.73213 104.315 4.68609 104.315 4.61244C104.352 4.06005 104.398 3.48004 104.562 2.95527C105.047 1.41779 106.198 0.616827 107.697 0.257774C108.565 0.0460248 110.174 0.0276118 111.051 0.184122C111.115 0.193329 111.28 0.211742 111.435 0.230155C111.581 0.248568 111.691 0.368252 111.691 0.515556V3.14861C111.691 3.30512 111.563 3.43401 111.407 3.43401C110.877 3.43401 109.927 3.43401 109.653 3.43401C108.812 3.43401 108.355 3.87592 108.328 4.6953C108.328 4.68609 108.328 4.67689 108.328 4.66768C108.328 4.32704 108.328 4.62165 108.328 4.80578C108.328 4.91626 108.328 4.9807 108.328 4.80578C109.525 4.80578 110.695 4.80578 111.864 4.81498C111.901 4.81498 111.938 4.81498 111.965 4.81498H112.02C112.102 4.81498 112.221 4.95308 112.257 5.05435C113.135 7.18105 114.003 9.30775 114.88 11.4344C114.926 11.5541 114.981 11.6738 115.054 11.8487C115.429 10.8913 115.785 9.98903 116.132 9.07759C116.644 7.75185 117.165 6.43533 117.659 5.10959C117.75 4.87022 117.86 4.80578 118.116 4.80578C119.386 4.80578 120.666 4.79657 122 4.79657Z" fill="#063A4F"/>
<path d="M104.307 4.75973C104.307 4.76894 104.307 4.77814 104.307 4.78735H104.297C104.288 4.68608 104.307 4.36385 104.307 4.75973Z" fill="#063A4F"/>
<path d="M111.855 4.80581C110.685 4.79661 109.516 4.79661 108.318 4.79661C108.318 4.97153 108.318 4.90708 108.318 4.79661C108.318 4.62168 108.318 4.32708 108.318 4.65851C108.318 4.66772 108.318 4.67692 108.318 4.68613C108.318 4.71375 108.328 4.74137 108.337 4.7874H111.764C111.791 4.7874 111.828 4.79661 111.855 4.80581Z" fill="#063A4F"/>
<path d="M101.263 5.12802V16.452C101.263 16.6269 101.126 16.765 100.952 16.765H97.6437C97.4701 16.765 97.333 16.6269 97.333 16.452V5.12802C97.333 4.9531 97.4701 4.815 97.6437 4.815H100.952C101.126 4.815 101.263 4.9531 101.263 5.12802Z" fill="#063A4F"/>
</svg>
